<?xml version="1.0" standalone="no"?>
<!DOCTYPE svg PUBLIC "-//W3C//DTD SVG 20010904//EN"
 "http://www.w3.org/TR/2001/REC-SVG-20010904/DTD/svg10.dtd">
<svg version="1.0" xmlns="http://www.w3.org/2000/svg"
 width="748.000000pt" height="748.000000pt" viewBox="0 0 748.000000 748.000000"
 preserveAspectRatio="xMidYMid meet">
<metadata>
Created by potrace 1.14, written by Peter Selinger 2001-2017
</metadata>
<g transform="translate(0.000000,748.000000) scale(0.100000,-0.100000)"
fill="#000000" stroke="none">
<path d="M2159 7475 c-2 -2 -28 -6 -58 -10 -114 -14 -267 -64 -394 -127 -150
-75 -288 -185 -417 -334 -110 -126 -238 -395 -265 -554 -3 -19 -8 -42 -10 -50
-30 -110 -20 -377 21 -535 2 -5 5 -21 8 -34 28 -128 151 -357 261 -489 66 -79
189 -188 285 -252 12 -8 28 -19 34 -25 16 -14 136 -103 311 -230 83 -60 152
-111 155 -115 3 -3 22 -16 42 -30 21 -14 38 -28 38 -32 0 -5 6 -8 14 -8 8 0
16 -3 18 -8 2 -4 71 -57 153 -117 141 -103 234 -172 262 -195 7 -6 16 -10 22
-10 5 0 11 -4 13 -8 2 -4 64 -53 138 -107 74 -55 137 -102 140 -105 3 -3 25
-19 50 -35 25 -16 47 -33 50 -36 3 -3 39 -30 80 -60 41 -29 80 -57 85 -62 9
-7 119 -89 245 -181 216 -159 454 -334 568 -418 53 -40 116 -86 139 -103 65
-46 255 -187 267 -197 6 -5 36 -26 66 -48 30 -22 60 -43 65 -48 6 -4 37 -28
70 -52 33 -24 110 -80 170 -125 90 -67 235 -173 340 -251 11 -8 119 -87 240
-177 122 -89 232 -170 245 -180 14 -10 63 -46 110 -80 46 -34 106 -85 133
-113 61 -65 138 -170 130 -178 -4 -3 -2 -6 4 -6 10 0 73 -143 92 -210 31 -110
39 -309 17 -415 -23 -110 -106 -315 -128 -315 -4 0 -8 -5 -8 -11 0 -30 -131
-170 -225 -239 -109 -81 -287 -152 -420 -168 -82 -10 -246 -6 -310 8 -33 8
-66 15 -74 16 -8 2 -41 13 -73 25 -101 38 -189 140 -214 249 -4 19 -8 403 -8
852 -1 449 -3 818 -6 820 -3 2 -57 42 -120 88 -63 47 -117 87 -120 90 -3 3
-29 22 -58 43 l-52 37 -1 -33 c0 -17 0 -243 1 -502 0 -259 0 -477 0 -485 -2
-466 0 -937 4 -974 26 -210 144 -390 316 -481 41 -22 77 -40 80 -40 3 0 31
-11 63 -23 152 -58 269 -77 467 -76 160 0 257 16 402 64 327 109 612 365 761
683 25 53 64 160 73 200 2 9 6 26 9 38 2 11 6 28 9 37 5 18 15 78 22 127 5 40
5 231 0 275 -10 86 -17 129 -32 180 -8 30 -19 69 -23 85 -28 108 -159 345
-241 435 -17 19 -44 49 -59 65 -40 46 -134 123 -261 215 -63 46 -116 87 -118
92 -2 4 -8 8 -13 8 -8 0 -29 15 -124 88 -5 4 -26 18 -45 32 -19 13 -37 27 -40
30 -3 3 -27 22 -55 41 -27 18 -52 36 -55 39 -7 7 -196 147 -305 226 -73 52
-403 297 -418 309 -9 8 -19 15 -22 15 -5 0 -37 25 -60 48 -8 6 -17 12 -20 12
-4 0 -19 10 -34 23 -15 12 -38 30 -52 40 -68 49 -350 257 -372 273 -14 10 -37
28 -53 39 -15 11 -33 26 -40 32 -7 7 -15 13 -19 13 -5 0 -80 55 -95 70 -3 3
-27 21 -55 39 -27 19 -52 38 -55 41 -3 3 -27 22 -55 41 -27 18 -52 36 -55 39
-3 3 -81 61 -175 130 -182 134 -374 275 -390 288 -5 4 -26 18 -45 32 -19 13
-37 27 -40 30 -3 4 -27 21 -55 40 -27 19 -52 36 -55 40 -3 3 -21 17 -40 30
-19 13 -37 27 -40 30 -3 3 -29 23 -59 44 -30 21 -59 43 -65 48 -9 7 -352 260
-439 323 -15 11 -68 50 -117 88 -50 37 -92 67 -95 67 -3 0 -13 7 -22 15 -10 8
-93 70 -185 138 -183 136 -230 176 -299 257 -155 184 -235 451 -204 680 3 19
7 51 9 70 8 58 62 212 95 268 17 29 31 57 31 62 0 6 4 10 8 10 4 0 16 14 26
31 18 30 119 137 166 174 38 31 110 75 120 75 6 0 10 4 10 9 0 14 182 85 244
95 17 3 42 8 56 12 14 3 75 7 135 8 188 5 367 -42 454 -120 44 -40 86 -108
107 -174 4 -14 8 -400 9 -857 0 -819 1 -833 20 -847 11 -8 54 -39 95 -70 41
-30 84 -62 95 -70 11 -8 47 -35 80 -60 33 -24 61 -43 62 -42 5 4 4 1980 0
2001 -3 11 -7 38 -11 60 -12 71 -71 207 -111 254 -11 13 -33 39 -48 57 -86
101 -321 205 -542 240 -37 7 -331 14 -336 9z"/>
<path d="M4279 7464 c-4 -83 -3 -124 4 -124 5 0 5 -5 1 -11 -3 -6 -6 -95 -5
-198 1 -102 1 -197 1 -211 -5 -111 -3 -540 2 -540 4 0 5 -7 1 -15 -9 -24 -9
-305 0 -305 5 0 5 -5 1 -11 -3 -6 -6 -95 -5 -198 1 -102 1 -197 1 -211 -5
-111 -3 -540 2 -540 4 0 5 -7 1 -15 -9 -24 -9 -305 0 -305 5 0 5 -5 1 -11 -3
-6 -6 -95 -5 -198 1 -102 2 -193 1 -201 0 -8 0 -82 -1 -163 -1 -167 -9 -148
96 -222 31 -22 71 -52 88 -67 18 -15 35 -28 39 -28 7 0 30 -17 62 -45 12 -11
64 -45 68 -45 2 0 3 739 3 1643 0 1631 0 1642 20 1641 29 -2 95 -16 125 -26 8
-3 47 -15 85 -28 132 -41 247 -95 397 -183 76 -44 211 -151 299 -235 318 -302
514 -697 565 -1138 16 -138 10 -428 -10 -491 -7 -22 -7 -22 184 -21 l191 0 12
26 c13 32 18 392 6 497 -8 79 -20 162 -24 185 -21 104 -37 170 -56 231 -13 41
-23 76 -24 79 -3 24 -56 155 -97 240 -83 176 -177 328 -282 455 -23 27 -48 58
-56 69 -36 45 -201 203 -270 258 -41 33 -85 69 -98 79 -12 10 -25 19 -29 19
-4 0 -16 8 -27 18 -24 21 -207 127 -276 159 -132 62 -364 139 -470 157 -19 3
-44 8 -56 10 -12 2 -45 8 -75 11 -30 4 -65 9 -79 11 -14 2 -89 7 -167 10 -136
6 -143 6 -144 -12z"/>
<path d="M2855 2043 c1 -896 -1 -1634 -3 -1641 -5 -13 -16 -12 -112 13 -315
80 -593 239 -831 475 -197 194 -314 371 -432 650 -42 98 -92 297 -112 445 -12
86 -12 407 0 472 l12 63 -36 -1 c-20 -1 -40 0 -46 1 -5 1 -14 2 -20 1 -5 -1
-71 -3 -145 -4 l-135 -2 -12 -45 c-11 -42 -11 -426 1 -520 7 -58 17 -124 21
-130 1 -3 6 -27 9 -54 4 -27 9 -53 11 -56 2 -4 7 -22 10 -40 22 -127 144 -425
243 -595 42 -72 155 -238 185 -271 7 -7 28 -32 49 -56 59 -70 160 -171 239
-238 115 -97 119 -100 128 -100 5 0 11 -4 13 -8 4 -10 103 -77 168 -114 116
-66 300 -153 300 -141 0 3 6 1 13 -5 11 -9 160 -59 202 -68 11 -2 47 -10 80
-18 33 -9 76 -18 95 -21 19 -3 48 -8 64 -11 46 -10 82 -13 244 -20 l152 -6 0
1708 0 1709 -110 80 c-61 44 -120 88 -133 99 -26 21 -104 76 -109 76 -2 0 -3
-732 -3 -1627z"/>
</g>
</svg>
