<?xml version="1.0" encoding="UTF-8"?>
<svg id="Calque_2" data-name="Calque 2" xmlns="http://www.w3.org/2000/svg" viewBox="0 0 138.89 187.26">
  <g id="Calque_1-2" data-name="Calque 1">
    <path d="M138.86,55.1c0-13.49-4.88-26.5-13.74-36.65-3.24-3.71-6.93-6.95-10.96-9.65C105.46,2.97,95.14,.05,84.68,0h-1.87s0,85.71,0,85.71l8.92,6.61V9.72c21.56,4.07,37.58,23.23,37.58,45.38,0,2.62,.01,5.6-.64,7.96h9.55c.87-2.39,.64-5.4,.64-7.96Z"/>
    <g>
      <path d="M47.16,95.2v82.34c-21.56-4.07-37.58-23.23-37.58-45.38,0-2.62-.01-5.6,.64-7.96H.67c-.87,2.39-.64,5.4-.64,7.96,0,13.49,4.88,26.5,13.74,36.65,3.24,3.71,6.93,6.95,10.96,9.65,8.69,5.83,19.01,8.75,29.47,8.79h1.87s0-85.44,0-85.44l-8.92-6.61Z"/>
      <path d="M126.53,129.82L18.6,50.28l-.12-.17c-6.27-5.23-9.34-13.37-7.91-21.64,2.13-12.27,13.65-20.32,25.99-18.69,1.7,.22,3.37,.62,4.97,1.2,3.42,1.23,5.64,4.56,5.64,8.2V59.29l8.92,6.61V17.75c0-2.47-.52-4.91-1.53-7.17-1.34-2.99-3.62-5.49-6.53-7-4.57-2.36-9.62-3.59-14.87-3.59C15.24,0,.67,14.57,.67,32.48c0,9.66,4.26,18.76,11.69,24.96l.57,.52,107.55,79.25c6.22,5.23,9.27,13.35,7.84,21.58-2.13,12.27-13.65,20.32-25.99,18.69-1.7-.22-3.37-.62-4.97-1.2-3.42-1.23-5.64-4.56-5.64-8.2v-39.85l-8.92-6.61v47.88c0,2.47,.52,4.91,1.53,7.17h0c1.34,2.99,3.62,5.49,6.53,7,4.56,2.36,9.62,3.59,14.87,3.59,17.91,0,32.48-14.57,32.48-32.48,0-9.66-4.26-18.76-11.69-24.96Z"/>
    </g>
  </g>
</svg>